<svg width="18" height="16" viewBox="0 0 18 16" fill="none" xmlns="http://www.w3.org/2000/svg">
<path d="M9.79351 4.02355L8.97017 2.37686C8.73321 1.90294 8.61472 1.66597 8.43796 1.49284C8.28165 1.33975 8.09325 1.22331 7.88641 1.15197C7.65251 1.07129 7.38758 1.07129 6.85771 1.07129H4.03661C3.2099 1.07129 2.79655 1.07129 2.48079 1.23218C2.20303 1.3737 1.97721 1.59952 1.83569 1.87727C1.6748 2.19303 1.6748 2.60639 1.6748 3.4331V4.02355M1.6748 4.02355H12.8934C14.1334 4.02355 14.7535 4.02355 15.2271 4.26488C15.6437 4.47716 15.9825 4.81589 16.1948 5.23252C16.4361 5.70616 16.4361 6.32619 16.4361 7.56626V10.8137C16.4361 12.0538 16.4361 12.6738 16.1948 13.1475C15.9825 13.5641 15.6437 13.9028 15.2271 14.1151C14.7535 14.3564 14.1334 14.3564 12.8934 14.3564H5.21751C3.97745 14.3564 3.35742 14.3564 2.88378 14.1151C2.46715 13.9028 2.12842 13.5641 1.91614 13.1475C1.6748 12.6738 1.6748 12.0538 1.6748 10.8137V4.02355Z" stroke="#667085" stroke-width="1.47613" stroke-linecap="round" stroke-linejoin="round"/>
</svg>
