<svg width="16" height="16" viewBox="0 0 16 16" fill="none" xmlns="http://www.w3.org/2000/svg">
<path d="M11.9462 7.23215V5.01796C11.9462 2.97985 10.294 1.32764 8.25586 1.32764C6.21775 1.32764 4.56554 2.97985 4.56554 5.01796V7.23215M5.15599 14.6128H11.3557C12.5958 14.6128 13.2158 14.6128 13.6895 14.3715C14.1061 14.1592 14.4448 13.8205 14.6571 13.4038C14.8984 12.9302 14.8984 12.3102 14.8984 11.0701V10.7749C14.8984 9.5348 14.8984 8.91476 14.6571 8.44112C14.4448 8.02449 14.1061 7.68577 13.6895 7.47348C13.2158 7.23215 12.5958 7.23215 11.3557 7.23215H5.15599C3.91593 7.23215 3.29589 7.23215 2.82225 7.47348C2.40562 7.68577 2.0669 8.02449 1.85461 8.44112C1.61328 8.91476 1.61328 9.5348 1.61328 10.7749V11.0701C1.61328 12.3102 1.61328 12.9302 1.85461 13.4038C2.0669 13.8205 2.40562 14.1592 2.82225 14.3715C3.29589 14.6128 3.91593 14.6128 5.15599 14.6128Z" stroke="#667085" stroke-width="1.47613" stroke-linecap="round" stroke-linejoin="round"/>
</svg>
